<mxfile host="app.diagrams.net" modified="2022-12-20T19:25:18.451Z" agent="5.0 (X11; Linux x86_64) AppleWebKit/537.36 (KHTML, like Gecko) Chrome/108.0.0.0 Safari/537.36" version="20.6.0" etag="j5B909rflne3rsoRDog5" type="github">
  <diagram id="xsnTFhJkq1Ax7VQsPlLa" name="Seite-1">
    <mxGraphModel dx="1662" dy="831" grid="1" gridSize="10" guides="1" tooltips="1" connect="1" arrows="1" fold="1" page="1" pageScale="1" pageWidth="4681" pageHeight="3300" math="0" shadow="0">
      <root>
        <mxCell id="0" />
        <mxCell id="1" parent="0" />
        <mxCell id="cRkIQCIf03S2cFRAkDVU-3" style="edgeStyle=orthogonalEdgeStyle;rounded=0;orthogonalLoop=1;jettySize=auto;html=1;exitX=0.5;exitY=0;exitDx=0;exitDy=0;entryX=0;entryY=0.5;entryDx=0;entryDy=0;" edge="1" parent="1" source="cRkIQCIf03S2cFRAkDVU-1" target="cRkIQCIf03S2cFRAkDVU-2">
          <mxGeometry relative="1" as="geometry" />
        </mxCell>
        <mxCell id="cRkIQCIf03S2cFRAkDVU-1" value="Order" style="rounded=0;whiteSpace=wrap;html=1;" vertex="1" parent="1">
          <mxGeometry x="40" y="500" width="120" height="60" as="geometry" />
        </mxCell>
        <mxCell id="cRkIQCIf03S2cFRAkDVU-7" style="edgeStyle=orthogonalEdgeStyle;rounded=0;orthogonalLoop=1;jettySize=auto;html=1;exitX=1;exitY=0.5;exitDx=0;exitDy=0;entryX=0.25;entryY=0;entryDx=0;entryDy=0;" edge="1" parent="1" source="cRkIQCIf03S2cFRAkDVU-2" target="cRkIQCIf03S2cFRAkDVU-4">
          <mxGeometry relative="1" as="geometry" />
        </mxCell>
        <mxCell id="cRkIQCIf03S2cFRAkDVU-8" value="TRUE" style="edgeLabel;html=1;align=center;verticalAlign=middle;resizable=0;points=[];" vertex="1" connectable="0" parent="cRkIQCIf03S2cFRAkDVU-7">
          <mxGeometry x="0.2667" y="-4" relative="1" as="geometry">
            <mxPoint as="offset" />
          </mxGeometry>
        </mxCell>
        <mxCell id="cRkIQCIf03S2cFRAkDVU-2" value="neuer Order auf dem Server" style="rounded=0;whiteSpace=wrap;html=1;" vertex="1" parent="1">
          <mxGeometry x="160" y="260" width="120" height="60" as="geometry" />
        </mxCell>
        <mxCell id="cRkIQCIf03S2cFRAkDVU-13" style="edgeStyle=orthogonalEdgeStyle;rounded=0;orthogonalLoop=1;jettySize=auto;html=1;exitX=0.75;exitY=0;exitDx=0;exitDy=0;entryX=0;entryY=0.5;entryDx=0;entryDy=0;" edge="1" parent="1" source="cRkIQCIf03S2cFRAkDVU-4" target="cRkIQCIf03S2cFRAkDVU-11">
          <mxGeometry relative="1" as="geometry" />
        </mxCell>
        <mxCell id="cRkIQCIf03S2cFRAkDVU-14" value="Text" style="edgeLabel;html=1;align=center;verticalAlign=middle;resizable=0;points=[];" vertex="1" connectable="0" parent="cRkIQCIf03S2cFRAkDVU-13">
          <mxGeometry x="0.075" relative="1" as="geometry">
            <mxPoint as="offset" />
          </mxGeometry>
        </mxCell>
        <mxCell id="cRkIQCIf03S2cFRAkDVU-4" value="Versandadresse hinzufügen" style="rounded=0;whiteSpace=wrap;html=1;" vertex="1" parent="1">
          <mxGeometry x="280" y="500" width="120" height="60" as="geometry" />
        </mxCell>
        <mxCell id="cRkIQCIf03S2cFRAkDVU-9" value="&lt;h1&gt;&lt;br&gt;&lt;/h1&gt;" style="text;html=1;strokeColor=none;fillColor=none;spacing=5;spacingTop=-20;whiteSpace=wrap;overflow=hidden;rounded=0;" vertex="1" parent="1">
          <mxGeometry x="140" y="100" width="190" height="120" as="geometry" />
        </mxCell>
        <mxCell id="cRkIQCIf03S2cFRAkDVU-10" value="Ware, seine Menge, Variation, email oder id" style="text;html=1;strokeColor=none;fillColor=none;align=center;verticalAlign=middle;whiteSpace=wrap;rounded=0;" vertex="1" parent="1">
          <mxGeometry x="150" y="140" width="140" height="80" as="geometry" />
        </mxCell>
        <mxCell id="cRkIQCIf03S2cFRAkDVU-16" style="edgeStyle=orthogonalEdgeStyle;rounded=0;orthogonalLoop=1;jettySize=auto;html=1;exitX=1;exitY=0.5;exitDx=0;exitDy=0;" edge="1" parent="1" source="cRkIQCIf03S2cFRAkDVU-11" target="cRkIQCIf03S2cFRAkDVU-15">
          <mxGeometry relative="1" as="geometry" />
        </mxCell>
        <mxCell id="cRkIQCIf03S2cFRAkDVU-11" value="update unserer order" style="rounded=0;whiteSpace=wrap;html=1;" vertex="1" parent="1">
          <mxGeometry x="400" y="260" width="120" height="60" as="geometry" />
        </mxCell>
        <mxCell id="cRkIQCIf03S2cFRAkDVU-12" value="Ware, seine Menge, Variation, email oder id, adresse" style="text;html=1;strokeColor=none;fillColor=none;align=center;verticalAlign=middle;whiteSpace=wrap;rounded=0;" vertex="1" parent="1">
          <mxGeometry x="390" y="160" width="140" height="50" as="geometry" />
        </mxCell>
        <mxCell id="cRkIQCIf03S2cFRAkDVU-19" style="edgeStyle=orthogonalEdgeStyle;rounded=0;orthogonalLoop=1;jettySize=auto;html=1;exitX=0.5;exitY=1;exitDx=0;exitDy=0;entryX=1;entryY=0.5;entryDx=0;entryDy=0;" edge="1" parent="1" source="cRkIQCIf03S2cFRAkDVU-15" target="cRkIQCIf03S2cFRAkDVU-18">
          <mxGeometry relative="1" as="geometry" />
        </mxCell>
        <mxCell id="cRkIQCIf03S2cFRAkDVU-20" value="NO" style="edgeLabel;html=1;align=center;verticalAlign=middle;resizable=0;points=[];" vertex="1" connectable="0" parent="cRkIQCIf03S2cFRAkDVU-19">
          <mxGeometry x="-0.4462" y="-1" relative="1" as="geometry">
            <mxPoint as="offset" />
          </mxGeometry>
        </mxCell>
        <mxCell id="cRkIQCIf03S2cFRAkDVU-23" value="YES" style="edgeStyle=orthogonalEdgeStyle;rounded=0;orthogonalLoop=1;jettySize=auto;html=1;exitX=1;exitY=0.5;exitDx=0;exitDy=0;entryX=0.5;entryY=1;entryDx=0;entryDy=0;" edge="1" parent="1" source="cRkIQCIf03S2cFRAkDVU-15" target="cRkIQCIf03S2cFRAkDVU-22">
          <mxGeometry relative="1" as="geometry">
            <Array as="points">
              <mxPoint x="740" y="400" />
            </Array>
          </mxGeometry>
        </mxCell>
        <mxCell id="cRkIQCIf03S2cFRAkDVU-15" value="Ist alles korrekt?" style="rhombus;whiteSpace=wrap;html=1;" vertex="1" parent="1">
          <mxGeometry x="560" y="360" width="80" height="80" as="geometry" />
        </mxCell>
        <mxCell id="cRkIQCIf03S2cFRAkDVU-21" style="edgeStyle=orthogonalEdgeStyle;rounded=0;orthogonalLoop=1;jettySize=auto;html=1;exitX=0;exitY=0.5;exitDx=0;exitDy=0;entryX=0.5;entryY=1;entryDx=0;entryDy=0;" edge="1" parent="1" source="cRkIQCIf03S2cFRAkDVU-18" target="cRkIQCIf03S2cFRAkDVU-4">
          <mxGeometry relative="1" as="geometry" />
        </mxCell>
        <mxCell id="cRkIQCIf03S2cFRAkDVU-18" value="Veränderung" style="rounded=0;whiteSpace=wrap;html=1;" vertex="1" parent="1">
          <mxGeometry x="400" y="590" width="120" height="60" as="geometry" />
        </mxCell>
        <mxCell id="cRkIQCIf03S2cFRAkDVU-34" style="edgeStyle=orthogonalEdgeStyle;rounded=0;orthogonalLoop=1;jettySize=auto;html=1;exitX=1;exitY=0.5;exitDx=0;exitDy=0;" edge="1" parent="1" source="cRkIQCIf03S2cFRAkDVU-22" target="cRkIQCIf03S2cFRAkDVU-33">
          <mxGeometry relative="1" as="geometry" />
        </mxCell>
        <mxCell id="cRkIQCIf03S2cFRAkDVU-22" value="Payment" style="rounded=0;whiteSpace=wrap;html=1;" vertex="1" parent="1">
          <mxGeometry x="680" y="260" width="120" height="60" as="geometry" />
        </mxCell>
        <mxCell id="cRkIQCIf03S2cFRAkDVU-36" style="edgeStyle=orthogonalEdgeStyle;rounded=0;orthogonalLoop=1;jettySize=auto;html=1;exitX=0;exitY=1;exitDx=0;exitDy=0;entryX=0.5;entryY=0;entryDx=0;entryDy=0;" edge="1" parent="1" source="cRkIQCIf03S2cFRAkDVU-33" target="cRkIQCIf03S2cFRAkDVU-35">
          <mxGeometry relative="1" as="geometry" />
        </mxCell>
        <mxCell id="cRkIQCIf03S2cFRAkDVU-37" value="JA" style="edgeLabel;html=1;align=center;verticalAlign=middle;resizable=0;points=[];" vertex="1" connectable="0" parent="cRkIQCIf03S2cFRAkDVU-36">
          <mxGeometry x="0.2381" y="-1" relative="1" as="geometry">
            <mxPoint as="offset" />
          </mxGeometry>
        </mxCell>
        <mxCell id="cRkIQCIf03S2cFRAkDVU-39" style="edgeStyle=orthogonalEdgeStyle;rounded=0;orthogonalLoop=1;jettySize=auto;html=1;exitX=1;exitY=1;exitDx=0;exitDy=0;entryX=0.5;entryY=0;entryDx=0;entryDy=0;" edge="1" parent="1" source="cRkIQCIf03S2cFRAkDVU-33">
          <mxGeometry relative="1" as="geometry">
            <mxPoint x="1180" y="420" as="targetPoint" />
          </mxGeometry>
        </mxCell>
        <mxCell id="cRkIQCIf03S2cFRAkDVU-40" value="NO" style="edgeLabel;html=1;align=center;verticalAlign=middle;resizable=0;points=[];" vertex="1" connectable="0" parent="cRkIQCIf03S2cFRAkDVU-39">
          <mxGeometry x="0.4581" y="-1" relative="1" as="geometry">
            <mxPoint as="offset" />
          </mxGeometry>
        </mxCell>
        <mxCell id="cRkIQCIf03S2cFRAkDVU-33" value="Erfolgreich?" style="rhombus;whiteSpace=wrap;html=1;" vertex="1" parent="1">
          <mxGeometry x="920" y="250" width="80" height="80" as="geometry" />
        </mxCell>
        <mxCell id="cRkIQCIf03S2cFRAkDVU-35" value="E-mail mit Rechnung schicken =&amp;gt; bestellen" style="rounded=0;whiteSpace=wrap;html=1;" vertex="1" parent="1">
          <mxGeometry x="780" y="420" width="120" height="60" as="geometry" />
        </mxCell>
        <mxCell id="cRkIQCIf03S2cFRAkDVU-43" style="edgeStyle=orthogonalEdgeStyle;rounded=0;orthogonalLoop=1;jettySize=auto;html=1;exitX=1;exitY=0.5;exitDx=0;exitDy=0;entryX=0.5;entryY=0;entryDx=0;entryDy=0;" edge="1" parent="1" source="cRkIQCIf03S2cFRAkDVU-41" target="cRkIQCIf03S2cFRAkDVU-42">
          <mxGeometry relative="1" as="geometry" />
        </mxCell>
        <mxCell id="cRkIQCIf03S2cFRAkDVU-44" value="YES" style="edgeLabel;html=1;align=center;verticalAlign=middle;resizable=0;points=[];" vertex="1" connectable="0" parent="cRkIQCIf03S2cFRAkDVU-43">
          <mxGeometry x="-0.2714" y="-2" relative="1" as="geometry">
            <mxPoint as="offset" />
          </mxGeometry>
        </mxCell>
        <mxCell id="cRkIQCIf03S2cFRAkDVU-46" style="edgeStyle=orthogonalEdgeStyle;rounded=0;orthogonalLoop=1;jettySize=auto;html=1;exitX=0;exitY=0.5;exitDx=0;exitDy=0;entryX=0.5;entryY=0;entryDx=0;entryDy=0;" edge="1" parent="1" source="cRkIQCIf03S2cFRAkDVU-41" target="cRkIQCIf03S2cFRAkDVU-45">
          <mxGeometry relative="1" as="geometry" />
        </mxCell>
        <mxCell id="cRkIQCIf03S2cFRAkDVU-47" value="NO" style="edgeLabel;html=1;align=center;verticalAlign=middle;resizable=0;points=[];" vertex="1" connectable="0" parent="cRkIQCIf03S2cFRAkDVU-46">
          <mxGeometry x="-0.1857" y="-2" relative="1" as="geometry">
            <mxPoint as="offset" />
          </mxGeometry>
        </mxCell>
        <mxCell id="cRkIQCIf03S2cFRAkDVU-41" value="Anstehend?" style="rhombus;whiteSpace=wrap;html=1;" vertex="1" parent="1">
          <mxGeometry x="1140" y="420" width="80" height="80" as="geometry" />
        </mxCell>
        <mxCell id="cRkIQCIf03S2cFRAkDVU-42" value="E-Mail an Admins =&amp;gt; E-Mail an Kunde" style="rounded=0;whiteSpace=wrap;html=1;" vertex="1" parent="1">
          <mxGeometry x="1240" y="520" width="120" height="60" as="geometry" />
        </mxCell>
        <mxCell id="cRkIQCIf03S2cFRAkDVU-45" value="E-Mail an Kunde (Was ist passiert? Warum usw)" style="rounded=0;whiteSpace=wrap;html=1;" vertex="1" parent="1">
          <mxGeometry x="1000" y="520" width="120" height="60" as="geometry" />
        </mxCell>
        <mxCell id="cRkIQCIf03S2cFRAkDVU-48" value="Mail-Vorlage" style="shape=parallelogram;perimeter=parallelogramPerimeter;whiteSpace=wrap;html=1;fixedSize=1;" vertex="1" parent="1">
          <mxGeometry x="1110" y="610" width="120" height="60" as="geometry" />
        </mxCell>
      </root>
    </mxGraphModel>
  </diagram>
</mxfile>
